<svg xmlns="http://www.w3.org/2000/svg"  viewBox="0 0 100 100" width="100px" height="100px"><path d="M38.5,92.899c-1.736,0-3.368-0.676-4.596-1.904l-30-30C2.676,59.769,2,58.136,2,56.399 s0.677-3.37,1.905-4.598l9.898-9.898C15.031,40.676,16.663,40,18.399,40s3.368,0.676,4.596,1.904L38.5,57.408l40.5-40.5 c1.228-1.228,2.86-1.904,4.596-1.904s3.368,0.676,4.596,1.904l9.899,9.899c1.227,1.227,1.904,2.859,1.904,4.596 s-0.677,3.37-1.905,4.598L43.096,90.996C41.868,92.223,40.236,92.899,38.5,92.899z" opacity=".35"/><path fill="#f2f2f2" d="M36.5,90.899c-1.736,0-3.368-0.676-4.596-1.904l-30-30C0.676,57.769,0,56.136,0,54.399 s0.677-3.37,1.905-4.598l9.898-9.898C13.031,38.676,14.663,38,16.399,38s3.368,0.676,4.596,1.904L36.5,55.408l40.5-40.5 c1.228-1.228,2.86-1.904,4.596-1.904s3.368,0.676,4.596,1.904l9.899,9.899c1.227,1.227,1.904,2.859,1.904,4.596 s-0.677,3.37-1.905,4.598L41.096,88.996C39.868,90.223,38.236,90.899,36.5,90.899z"/><polygon fill="#96c362" points="36.5,84.399 6.5,54.399 16.399,44.5 36.5,64.601 81.597,19.504 91.496,29.403"/><g><polygon fill="none" stroke="#40396e" stroke-linecap="round" stroke-linejoin="round" stroke-miterlimit="10" stroke-width="3" points="36.5,84.399 6.5,54.399 16.399,44.5 36.5,64.601 81.597,19.504 91.496,29.403"/></g></svg>