<svg xmlns="http://www.w3.org/2000/svg"  viewBox="0 0 100 100" width="100px" height="100px"><path d="M82.047,94.126c-3.179-0.073-6.167-1.436-8.351-3.834L56.753,71.684 c-4.408,2.152-9.269,3.275-14.272,3.275c-8.755,0-16.949-3.373-23.073-9.498c-6.15-6.149-9.538-14.327-9.538-23.026 s3.388-16.877,9.539-23.027c6.149-6.15,14.327-9.538,23.026-9.538s16.877,3.388,23.027,9.539 c9.916,9.915,12.252,25.023,6.223,37.346l18.607,16.941c2.398,2.185,3.761,5.173,3.836,8.415c0.076,3.24-1.146,6.288-3.439,8.581 c-2.216,2.217-5.164,3.439-8.3,3.439C82.274,94.131,82.161,94.13,82.047,94.126z" opacity=".35"/><path fill="#f2f2f2" d="M80.047,92.126c-3.179-0.073-6.167-1.436-8.351-3.834L54.753,69.684 c-4.408,2.152-9.269,3.275-14.272,3.275c-8.755,0-16.949-3.373-23.073-9.498c-6.15-6.149-9.538-14.327-9.538-23.026 s3.388-16.877,9.539-23.027c6.149-6.15,14.327-9.538,23.026-9.538s16.877,3.388,23.027,9.539 c9.916,9.915,12.252,25.023,6.223,37.346l18.607,16.941c2.398,2.185,3.761,5.173,3.836,8.415c0.076,3.24-1.146,6.288-3.439,8.581 c-2.216,2.217-5.164,3.439-8.3,3.439C80.274,92.131,80.161,92.13,80.047,92.126z"/><path fill="#707cc0" d="M84.094,84.094L84.094,84.094c-2.118,2.118-5.576,2.037-7.592-0.178L47.855,52.451l4.596-4.596 l31.465,28.647C86.131,78.518,86.212,81.976,84.094,84.094z"/><circle cx="39.839" cy="39.839" r="25.47" fill="#70bfff"/><path fill="#40396e" d="M80.388,87.131c-0.054,0-0.108,0-0.163-0.002c-1.862-0.043-3.578-0.825-4.833-2.203l-19.64-21.572 c-10.798,7.225-25.532,5.852-34.81-3.428c-5.207-5.206-8.074-12.128-8.074-19.491s2.867-14.285,8.074-19.491 c5.206-5.207,12.128-8.074,19.492-8.074s14.286,2.867,19.492,8.074c9.278,9.277,10.651,24.011,3.427,34.809l21.572,19.641l0,0 c1.377,1.255,2.16,2.971,2.204,4.833s-0.658,3.612-1.975,4.929C83.876,86.433,82.189,87.131,80.388,87.131z M55.97,59.864 c0.409,0,0.815,0.167,1.11,0.49l20.532,22.552c0.696,0.765,1.65,1.2,2.684,1.224c1.054,0.042,2.006-0.365,2.738-1.097 s1.121-1.703,1.097-2.737s-0.459-1.988-1.224-2.685L60.354,57.079c-0.57-0.52-0.654-1.386-0.194-2.005 c7.213-9.693,6.201-23.454-2.355-32.01c-4.64-4.64-10.809-7.195-17.371-7.195s-12.73,2.556-17.371,7.195 c-4.64,4.64-7.195,10.809-7.195,17.37s2.555,12.73,7.195,17.37c8.556,8.555,22.318,9.568,32.011,2.356 C55.343,59.962,55.657,59.864,55.97,59.864z"/><path fill="#d9eeff" d="M20.369,41.935c-0.829,0-1.5-0.672-1.5-1.5c0-5.761,2.244-11.177,6.317-15.249 c1.485-1.485,3.163-2.739,4.987-3.729c0.729-0.395,1.639-0.124,2.033,0.604c0.395,0.728,0.125,1.639-0.604,2.033 c-1.569,0.852-3.015,1.933-4.295,3.213c-3.507,3.507-5.438,8.169-5.438,13.128C21.869,41.263,21.198,41.935,20.369,41.935z"/></svg>